<mxfile host="app.diagrams.net" modified="2022-06-15T07:54:45.519Z" agent="5.0 (Windows NT 10.0; Win64; x64) AppleWebKit/537.36 (KHTML, like Gecko) Chrome/84.0.4147.105 Safari/537.36" etag="Jv0jw53HS6tlhwsIsnjt" version="20.0.1" type="github">
  <diagram id="hOID2NO2qhy8Afpl9kij" name="Page-1">
    <mxGraphModel dx="1543" dy="1257" grid="1" gridSize="10" guides="1" tooltips="1" connect="1" arrows="1" fold="1" page="1" pageScale="1" pageWidth="827" pageHeight="1169" math="0" shadow="0">
      <root>
        <mxCell id="0" />
        <mxCell id="1" parent="0" />
        <mxCell id="rIxZJg8oqruKLC6vNlmA-1" value="" style="endArrow=none;html=1;rounded=0;strokeWidth=4;strokeColor=#666666;" parent="1" edge="1">
          <mxGeometry width="50" height="50" relative="1" as="geometry">
            <mxPoint x="1600" y="226" as="sourcePoint" />
            <mxPoint x="1694" y="226" as="targetPoint" />
          </mxGeometry>
        </mxCell>
        <mxCell id="rIxZJg8oqruKLC6vNlmA-2" value="" style="endArrow=none;html=1;rounded=0;strokeWidth=4;strokeColor=#666666;" parent="1" edge="1">
          <mxGeometry width="50" height="50" relative="1" as="geometry">
            <mxPoint x="1600" y="246" as="sourcePoint" />
            <mxPoint x="1694" y="246" as="targetPoint" />
          </mxGeometry>
        </mxCell>
        <mxCell id="rIxZJg8oqruKLC6vNlmA-3" value="" style="endArrow=none;html=1;rounded=0;strokeWidth=4;strokeColor=#666666;" parent="1" edge="1">
          <mxGeometry width="50" height="50" relative="1" as="geometry">
            <mxPoint x="1600" y="265" as="sourcePoint" />
            <mxPoint x="1694" y="265" as="targetPoint" />
          </mxGeometry>
        </mxCell>
        <mxCell id="rIxZJg8oqruKLC6vNlmA-4" value="" style="endArrow=none;html=1;rounded=0;strokeWidth=4;strokeColor=#666666;" parent="1" edge="1">
          <mxGeometry width="50" height="50" relative="1" as="geometry">
            <mxPoint x="1600" y="285" as="sourcePoint" />
            <mxPoint x="1694" y="285" as="targetPoint" />
          </mxGeometry>
        </mxCell>
        <mxCell id="rIxZJg8oqruKLC6vNlmA-5" value="" style="endArrow=classic;html=1;rounded=0;" parent="1" edge="1">
          <mxGeometry width="50" height="50" relative="1" as="geometry">
            <mxPoint x="1729" y="256" as="sourcePoint" />
            <mxPoint x="1809" y="256" as="targetPoint" />
          </mxGeometry>
        </mxCell>
        <mxCell id="rIxZJg8oqruKLC6vNlmA-11" value="" style="endArrow=none;html=1;rounded=0;fillColor=#dae8fc;strokeColor=#00CCCC;strokeWidth=2;" parent="1" edge="1">
          <mxGeometry width="50" height="50" relative="1" as="geometry">
            <mxPoint x="1674" y="241" as="sourcePoint" />
            <mxPoint x="1684" y="251" as="targetPoint" />
          </mxGeometry>
        </mxCell>
        <mxCell id="rIxZJg8oqruKLC6vNlmA-12" value="" style="endArrow=none;html=1;rounded=0;fillColor=#dae8fc;strokeColor=#00CCCC;strokeWidth=2;" parent="1" edge="1">
          <mxGeometry width="50" height="50" relative="1" as="geometry">
            <mxPoint x="1684" y="241" as="sourcePoint" />
            <mxPoint x="1674" y="251" as="targetPoint" />
          </mxGeometry>
        </mxCell>
        <mxCell id="rIxZJg8oqruKLC6vNlmA-33" value="" style="endArrow=none;html=1;rounded=0;strokeWidth=4;strokeColor=#666666;" parent="1" edge="1">
          <mxGeometry width="50" height="50" relative="1" as="geometry">
            <mxPoint x="2020" y="232" as="sourcePoint" />
            <mxPoint x="2108" y="232" as="targetPoint" />
          </mxGeometry>
        </mxCell>
        <mxCell id="rIxZJg8oqruKLC6vNlmA-34" value="" style="endArrow=none;html=1;rounded=0;strokeWidth=4;strokeColor=#666666;" parent="1" edge="1">
          <mxGeometry width="50" height="50" relative="1" as="geometry">
            <mxPoint x="2020" y="252" as="sourcePoint" />
            <mxPoint x="2108" y="252" as="targetPoint" />
          </mxGeometry>
        </mxCell>
        <mxCell id="rIxZJg8oqruKLC6vNlmA-35" value="" style="endArrow=none;html=1;rounded=0;strokeWidth=4;strokeColor=#666666;" parent="1" edge="1">
          <mxGeometry width="50" height="50" relative="1" as="geometry">
            <mxPoint x="2020" y="270" as="sourcePoint" />
            <mxPoint x="2108" y="271" as="targetPoint" />
          </mxGeometry>
        </mxCell>
        <mxCell id="rIxZJg8oqruKLC6vNlmA-36" value="" style="endArrow=none;html=1;rounded=0;strokeWidth=4;strokeColor=#666666;" parent="1" edge="1">
          <mxGeometry width="50" height="50" relative="1" as="geometry">
            <mxPoint x="2020" y="291" as="sourcePoint" />
            <mxPoint x="2108" y="291" as="targetPoint" />
          </mxGeometry>
        </mxCell>
        <mxCell id="rIxZJg8oqruKLC6vNlmA-37" value="" style="endArrow=classic;html=1;rounded=0;" parent="1" edge="1">
          <mxGeometry width="50" height="50" relative="1" as="geometry">
            <mxPoint x="2143" y="262" as="sourcePoint" />
            <mxPoint x="2223" y="262" as="targetPoint" />
          </mxGeometry>
        </mxCell>
        <mxCell id="rIxZJg8oqruKLC6vNlmA-38" value="" style="endArrow=none;html=1;rounded=0;fillColor=#dae8fc;strokeColor=#00CCCC;strokeWidth=2;" parent="1" edge="1">
          <mxGeometry width="50" height="50" relative="1" as="geometry">
            <mxPoint x="2088" y="247" as="sourcePoint" />
            <mxPoint x="2098" y="257" as="targetPoint" />
          </mxGeometry>
        </mxCell>
        <mxCell id="rIxZJg8oqruKLC6vNlmA-39" value="" style="endArrow=none;html=1;rounded=0;fillColor=#dae8fc;strokeColor=#00CCCC;strokeWidth=2;" parent="1" edge="1">
          <mxGeometry width="50" height="50" relative="1" as="geometry">
            <mxPoint x="2098" y="247" as="sourcePoint" />
            <mxPoint x="2088" y="257" as="targetPoint" />
          </mxGeometry>
        </mxCell>
        <mxCell id="rIxZJg8oqruKLC6vNlmA-40" value="" style="endArrow=none;html=1;rounded=0;strokeWidth=4;strokeColor=#666666;" parent="1" edge="1">
          <mxGeometry width="50" height="50" relative="1" as="geometry">
            <mxPoint x="2273" y="318.82000000000005" as="sourcePoint" />
            <mxPoint x="2360" y="319" as="targetPoint" />
          </mxGeometry>
        </mxCell>
        <mxCell id="rIxZJg8oqruKLC6vNlmA-41" value="" style="endArrow=none;html=1;rounded=0;strokeWidth=4;strokeColor=#FF66B3;fillColor=#d80073;" parent="1" edge="1">
          <mxGeometry width="50" height="50" relative="1" as="geometry">
            <mxPoint x="2253" y="318.82000000000005" as="sourcePoint" />
            <mxPoint x="2273" y="318.82000000000005" as="targetPoint" />
          </mxGeometry>
        </mxCell>
        <mxCell id="rIxZJg8oqruKLC6vNlmA-42" value="" style="endArrow=none;html=1;rounded=0;strokeWidth=4;strokeColor=#666666;" parent="1" edge="1">
          <mxGeometry width="50" height="50" relative="1" as="geometry">
            <mxPoint x="2273" y="338.82000000000005" as="sourcePoint" />
            <mxPoint x="2360" y="339" as="targetPoint" />
          </mxGeometry>
        </mxCell>
        <mxCell id="rIxZJg8oqruKLC6vNlmA-43" value="" style="endArrow=none;html=1;rounded=0;strokeWidth=4;strokeColor=#FF66B3;fillColor=#d80073;" parent="1" edge="1">
          <mxGeometry width="50" height="50" relative="1" as="geometry">
            <mxPoint x="2253" y="338.82000000000005" as="sourcePoint" />
            <mxPoint x="2273" y="338.82000000000005" as="targetPoint" />
          </mxGeometry>
        </mxCell>
        <mxCell id="rIxZJg8oqruKLC6vNlmA-44" value="" style="endArrow=none;html=1;rounded=0;strokeWidth=4;strokeColor=#666666;" parent="1" edge="1">
          <mxGeometry width="50" height="50" relative="1" as="geometry">
            <mxPoint x="2272" y="279.81999999999994" as="sourcePoint" />
            <mxPoint x="2360" y="280" as="targetPoint" />
          </mxGeometry>
        </mxCell>
        <mxCell id="rIxZJg8oqruKLC6vNlmA-45" value="" style="endArrow=none;html=1;rounded=0;strokeWidth=4;strokeColor=#666666;" parent="1" edge="1">
          <mxGeometry width="50" height="50" relative="1" as="geometry">
            <mxPoint x="2272" y="299.81999999999994" as="sourcePoint" />
            <mxPoint x="2360" y="300" as="targetPoint" />
          </mxGeometry>
        </mxCell>
        <mxCell id="rIxZJg8oqruKLC6vNlmA-46" value="" style="endArrow=none;html=1;rounded=0;strokeWidth=4;strokeColor=#d79b00;fillColor=#ffe6cc;" parent="1" edge="1">
          <mxGeometry width="50" height="50" relative="1" as="geometry">
            <mxPoint x="2253" y="279.81999999999994" as="sourcePoint" />
            <mxPoint x="2273" y="279.81999999999994" as="targetPoint" />
          </mxGeometry>
        </mxCell>
        <mxCell id="rIxZJg8oqruKLC6vNlmA-47" value="" style="endArrow=none;html=1;rounded=0;strokeWidth=4;strokeColor=#d79b00;fillColor=#ffe6cc;" parent="1" edge="1">
          <mxGeometry width="50" height="50" relative="1" as="geometry">
            <mxPoint x="2253" y="299.81999999999994" as="sourcePoint" />
            <mxPoint x="2273" y="299.81999999999994" as="targetPoint" />
          </mxGeometry>
        </mxCell>
        <mxCell id="rIxZJg8oqruKLC6vNlmA-48" value="" style="endArrow=none;html=1;rounded=0;strokeWidth=4;strokeColor=#666666;" parent="1" edge="1">
          <mxGeometry width="50" height="50" relative="1" as="geometry">
            <mxPoint x="2273" y="160.81999999999994" as="sourcePoint" />
            <mxPoint x="2360" y="160" as="targetPoint" />
          </mxGeometry>
        </mxCell>
        <mxCell id="rIxZJg8oqruKLC6vNlmA-49" value="" style="endArrow=none;html=1;rounded=0;strokeWidth=4;strokeColor=#666666;" parent="1" edge="1">
          <mxGeometry width="50" height="50" relative="1" as="geometry">
            <mxPoint x="2272" y="180.81999999999994" as="sourcePoint" />
            <mxPoint x="2360" y="180" as="targetPoint" />
          </mxGeometry>
        </mxCell>
        <mxCell id="rIxZJg8oqruKLC6vNlmA-50" value="" style="endArrow=none;html=1;rounded=0;strokeWidth=4;strokeColor=#666666;" parent="1" edge="1">
          <mxGeometry width="50" height="50" relative="1" as="geometry">
            <mxPoint x="2273" y="240.81999999999994" as="sourcePoint" />
            <mxPoint x="2360" y="241" as="targetPoint" />
          </mxGeometry>
        </mxCell>
        <mxCell id="rIxZJg8oqruKLC6vNlmA-51" value="" style="endArrow=none;html=1;rounded=0;strokeWidth=4;strokeColor=#666666;" parent="1" edge="1">
          <mxGeometry width="50" height="50" relative="1" as="geometry">
            <mxPoint x="2272" y="259.81999999999994" as="sourcePoint" />
            <mxPoint x="2360" y="260" as="targetPoint" />
          </mxGeometry>
        </mxCell>
        <mxCell id="rIxZJg8oqruKLC6vNlmA-52" value="" style="endArrow=none;html=1;rounded=0;strokeWidth=4;strokeColor=#9933FF;" parent="1" edge="1">
          <mxGeometry width="50" height="50" relative="1" as="geometry">
            <mxPoint x="2253" y="160.81999999999994" as="sourcePoint" />
            <mxPoint x="2273" y="160.81999999999994" as="targetPoint" />
          </mxGeometry>
        </mxCell>
        <mxCell id="rIxZJg8oqruKLC6vNlmA-53" value="" style="endArrow=none;html=1;rounded=0;strokeWidth=4;strokeColor=#9933FF;fillColor=#dae8fc;" parent="1" edge="1">
          <mxGeometry width="50" height="50" relative="1" as="geometry">
            <mxPoint x="2253" y="180.81999999999994" as="sourcePoint" />
            <mxPoint x="2273" y="180.81999999999994" as="targetPoint" />
          </mxGeometry>
        </mxCell>
        <mxCell id="rIxZJg8oqruKLC6vNlmA-54" value="" style="endArrow=none;html=1;rounded=0;strokeWidth=4;strokeColor=#82b366;fillColor=#d5e8d4;" parent="1" edge="1">
          <mxGeometry width="50" height="50" relative="1" as="geometry">
            <mxPoint x="2253" y="240.81999999999994" as="sourcePoint" />
            <mxPoint x="2273" y="240.81999999999994" as="targetPoint" />
          </mxGeometry>
        </mxCell>
        <mxCell id="rIxZJg8oqruKLC6vNlmA-55" value="" style="endArrow=none;html=1;rounded=0;strokeWidth=4;strokeColor=#d79b00;fillColor=#ffe6cc;" parent="1" edge="1">
          <mxGeometry width="50" height="50" relative="1" as="geometry">
            <mxPoint x="2253" y="259.81999999999994" as="sourcePoint" />
            <mxPoint x="2273" y="259.81999999999994" as="targetPoint" />
          </mxGeometry>
        </mxCell>
        <mxCell id="rIxZJg8oqruKLC6vNlmA-56" value="" style="endArrow=none;html=1;rounded=0;strokeWidth=4;strokeColor=#666666;" parent="1" edge="1">
          <mxGeometry width="50" height="50" relative="1" as="geometry">
            <mxPoint x="2273" y="199.81999999999994" as="sourcePoint" />
            <mxPoint x="2360" y="200" as="targetPoint" />
          </mxGeometry>
        </mxCell>
        <mxCell id="rIxZJg8oqruKLC6vNlmA-57" value="" style="endArrow=none;html=1;rounded=0;strokeWidth=4;strokeColor=#666666;" parent="1" edge="1">
          <mxGeometry width="50" height="50" relative="1" as="geometry">
            <mxPoint x="2272" y="219.81999999999994" as="sourcePoint" />
            <mxPoint x="2360" y="220" as="targetPoint" />
          </mxGeometry>
        </mxCell>
        <mxCell id="rIxZJg8oqruKLC6vNlmA-58" value="" style="endArrow=none;html=1;rounded=0;strokeWidth=4;strokeColor=#9933FF;fillColor=#6a00ff;" parent="1" edge="1">
          <mxGeometry width="50" height="50" relative="1" as="geometry">
            <mxPoint x="2253" y="199.81999999999994" as="sourcePoint" />
            <mxPoint x="2273" y="199.81999999999994" as="targetPoint" />
          </mxGeometry>
        </mxCell>
        <mxCell id="rIxZJg8oqruKLC6vNlmA-59" value="" style="endArrow=none;html=1;rounded=0;strokeWidth=4;strokeColor=#82b366;fillColor=#d5e8d4;" parent="1" edge="1">
          <mxGeometry width="50" height="50" relative="1" as="geometry">
            <mxPoint x="2253" y="219.81999999999994" as="sourcePoint" />
            <mxPoint x="2273" y="219.81999999999994" as="targetPoint" />
          </mxGeometry>
        </mxCell>
        <mxCell id="rIxZJg8oqruKLC6vNlmA-60" value="&lt;font style=&quot;font-size: 32px;&quot;&gt;Without UMI&lt;/font&gt;" style="text;html=1;align=center;verticalAlign=middle;resizable=0;points=[];autosize=1;strokeColor=none;fillColor=none;" parent="1" vertex="1">
          <mxGeometry x="1669" y="71" width="190" height="30" as="geometry" />
        </mxCell>
        <mxCell id="rIxZJg8oqruKLC6vNlmA-61" value="&lt;font style=&quot;font-size: 32px;&quot;&gt;With UMI&lt;/font&gt;" style="text;html=1;align=center;verticalAlign=middle;resizable=0;points=[];autosize=1;strokeColor=none;fillColor=none;" parent="1" vertex="1">
          <mxGeometry x="2109" y="71" width="150" height="30" as="geometry" />
        </mxCell>
        <mxCell id="rIxZJg8oqruKLC6vNlmA-72" value="" style="endArrow=none;html=1;rounded=0;fillColor=#dae8fc;strokeColor=#00CCCC;strokeWidth=2;" parent="1" edge="1">
          <mxGeometry width="50" height="50" relative="1" as="geometry">
            <mxPoint x="1896" y="294" as="sourcePoint" />
            <mxPoint x="1906" y="304" as="targetPoint" />
          </mxGeometry>
        </mxCell>
        <mxCell id="rIxZJg8oqruKLC6vNlmA-73" value="" style="endArrow=none;html=1;rounded=0;fillColor=#dae8fc;strokeColor=#00CCCC;strokeWidth=2;" parent="1" edge="1">
          <mxGeometry width="50" height="50" relative="1" as="geometry">
            <mxPoint x="1906" y="294" as="sourcePoint" />
            <mxPoint x="1896" y="304" as="targetPoint" />
          </mxGeometry>
        </mxCell>
        <mxCell id="rIxZJg8oqruKLC6vNlmA-74" value="" style="endArrow=none;html=1;rounded=0;fillColor=#dae8fc;strokeColor=#00CCCC;strokeWidth=2;" parent="1" edge="1">
          <mxGeometry width="50" height="50" relative="1" as="geometry">
            <mxPoint x="1896" y="274" as="sourcePoint" />
            <mxPoint x="1906" y="284" as="targetPoint" />
          </mxGeometry>
        </mxCell>
        <mxCell id="rIxZJg8oqruKLC6vNlmA-75" value="" style="endArrow=none;html=1;rounded=0;fillColor=#dae8fc;strokeColor=#00CCCC;strokeWidth=2;" parent="1" edge="1">
          <mxGeometry width="50" height="50" relative="1" as="geometry">
            <mxPoint x="1906" y="274" as="sourcePoint" />
            <mxPoint x="1896" y="284" as="targetPoint" />
          </mxGeometry>
        </mxCell>
        <mxCell id="rIxZJg8oqruKLC6vNlmA-76" value="" style="endArrow=none;html=1;rounded=0;fillColor=#dae8fc;strokeColor=#00CCCC;strokeWidth=2;" parent="1" edge="1">
          <mxGeometry width="50" height="50" relative="1" as="geometry">
            <mxPoint x="1896" y="254" as="sourcePoint" />
            <mxPoint x="1906" y="264" as="targetPoint" />
          </mxGeometry>
        </mxCell>
        <mxCell id="rIxZJg8oqruKLC6vNlmA-77" value="" style="endArrow=none;html=1;rounded=0;fillColor=#dae8fc;strokeColor=#00CCCC;strokeWidth=2;" parent="1" edge="1">
          <mxGeometry width="50" height="50" relative="1" as="geometry">
            <mxPoint x="1906" y="254" as="sourcePoint" />
            <mxPoint x="1896" y="264" as="targetPoint" />
          </mxGeometry>
        </mxCell>
        <mxCell id="rIxZJg8oqruKLC6vNlmA-78" value="" style="endArrow=none;html=1;rounded=0;fillColor=#a20025;strokeColor=#FF0000;strokeWidth=2;" parent="1" edge="1">
          <mxGeometry width="50" height="50" relative="1" as="geometry">
            <mxPoint x="1858" y="155" as="sourcePoint" />
            <mxPoint x="1868" y="165" as="targetPoint" />
          </mxGeometry>
        </mxCell>
        <mxCell id="rIxZJg8oqruKLC6vNlmA-79" value="" style="endArrow=none;html=1;rounded=0;fillColor=#a20025;strokeColor=#FF0000;strokeWidth=2;" parent="1" edge="1">
          <mxGeometry width="50" height="50" relative="1" as="geometry">
            <mxPoint x="1868" y="155" as="sourcePoint" />
            <mxPoint x="1858" y="165" as="targetPoint" />
          </mxGeometry>
        </mxCell>
        <mxCell id="rIxZJg8oqruKLC6vNlmA-80" value="" style="endArrow=none;html=1;rounded=0;strokeWidth=4;strokeColor=#666666;" parent="1" edge="1">
          <mxGeometry width="50" height="50" relative="1" as="geometry">
            <mxPoint x="1846" y="318.00000000000006" as="sourcePoint" />
            <mxPoint x="1930" y="318" as="targetPoint" />
          </mxGeometry>
        </mxCell>
        <mxCell id="rIxZJg8oqruKLC6vNlmA-82" value="" style="endArrow=none;html=1;rounded=0;strokeWidth=4;strokeColor=#666666;" parent="1" edge="1">
          <mxGeometry width="50" height="50" relative="1" as="geometry">
            <mxPoint x="1846" y="338.00000000000006" as="sourcePoint" />
            <mxPoint x="1930" y="338" as="targetPoint" />
          </mxGeometry>
        </mxCell>
        <mxCell id="rIxZJg8oqruKLC6vNlmA-84" value="" style="endArrow=none;html=1;rounded=0;strokeWidth=4;strokeColor=#666666;" parent="1" edge="1">
          <mxGeometry width="50" height="50" relative="1" as="geometry">
            <mxPoint x="1845" y="278.99999999999994" as="sourcePoint" />
            <mxPoint x="1930" y="279" as="targetPoint" />
          </mxGeometry>
        </mxCell>
        <mxCell id="rIxZJg8oqruKLC6vNlmA-85" value="" style="endArrow=none;html=1;rounded=0;strokeWidth=4;strokeColor=#666666;" parent="1" edge="1">
          <mxGeometry width="50" height="50" relative="1" as="geometry">
            <mxPoint x="1845" y="298.99999999999994" as="sourcePoint" />
            <mxPoint x="1930" y="300" as="targetPoint" />
          </mxGeometry>
        </mxCell>
        <mxCell id="rIxZJg8oqruKLC6vNlmA-88" value="" style="endArrow=none;html=1;rounded=0;strokeWidth=4;strokeColor=#666666;" parent="1" edge="1">
          <mxGeometry width="50" height="50" relative="1" as="geometry">
            <mxPoint x="1846" y="159.99999999999994" as="sourcePoint" />
            <mxPoint x="1930" y="160" as="targetPoint" />
          </mxGeometry>
        </mxCell>
        <mxCell id="rIxZJg8oqruKLC6vNlmA-89" value="" style="endArrow=none;html=1;rounded=0;strokeWidth=4;strokeColor=#666666;" parent="1" edge="1">
          <mxGeometry width="50" height="50" relative="1" as="geometry">
            <mxPoint x="1845" y="179.99999999999994" as="sourcePoint" />
            <mxPoint x="1930" y="180" as="targetPoint" />
          </mxGeometry>
        </mxCell>
        <mxCell id="rIxZJg8oqruKLC6vNlmA-90" value="" style="endArrow=none;html=1;rounded=0;strokeWidth=4;strokeColor=#666666;" parent="1" edge="1">
          <mxGeometry width="50" height="50" relative="1" as="geometry">
            <mxPoint x="1846" y="239.99999999999994" as="sourcePoint" />
            <mxPoint x="1930" y="240" as="targetPoint" />
          </mxGeometry>
        </mxCell>
        <mxCell id="rIxZJg8oqruKLC6vNlmA-91" value="" style="endArrow=none;html=1;rounded=0;strokeWidth=4;strokeColor=#666666;" parent="1" edge="1">
          <mxGeometry width="50" height="50" relative="1" as="geometry">
            <mxPoint x="1845" y="258.99999999999994" as="sourcePoint" />
            <mxPoint x="1930" y="259" as="targetPoint" />
          </mxGeometry>
        </mxCell>
        <mxCell id="rIxZJg8oqruKLC6vNlmA-96" value="" style="endArrow=none;html=1;rounded=0;strokeWidth=4;strokeColor=#666666;" parent="1" edge="1">
          <mxGeometry width="50" height="50" relative="1" as="geometry">
            <mxPoint x="1846" y="198.99999999999994" as="sourcePoint" />
            <mxPoint x="1930" y="199" as="targetPoint" />
          </mxGeometry>
        </mxCell>
        <mxCell id="rIxZJg8oqruKLC6vNlmA-97" value="" style="endArrow=none;html=1;rounded=0;strokeWidth=4;strokeColor=#666666;" parent="1" edge="1">
          <mxGeometry width="50" height="50" relative="1" as="geometry">
            <mxPoint x="1845" y="218.99999999999994" as="sourcePoint" />
            <mxPoint x="1930" y="219" as="targetPoint" />
          </mxGeometry>
        </mxCell>
        <mxCell id="rIxZJg8oqruKLC6vNlmA-100" value="" style="endArrow=none;html=1;rounded=0;fillColor=#dae8fc;strokeColor=#00CCCC;strokeWidth=2;" parent="1" edge="1">
          <mxGeometry width="50" height="50" relative="1" as="geometry">
            <mxPoint x="1896" y="294" as="sourcePoint" />
            <mxPoint x="1906" y="304" as="targetPoint" />
          </mxGeometry>
        </mxCell>
        <mxCell id="rIxZJg8oqruKLC6vNlmA-101" value="" style="endArrow=none;html=1;rounded=0;fillColor=#dae8fc;strokeColor=#00CCCC;strokeWidth=2;" parent="1" edge="1">
          <mxGeometry width="50" height="50" relative="1" as="geometry">
            <mxPoint x="1906" y="294" as="sourcePoint" />
            <mxPoint x="1896" y="304" as="targetPoint" />
          </mxGeometry>
        </mxCell>
        <mxCell id="rIxZJg8oqruKLC6vNlmA-102" value="" style="endArrow=none;html=1;rounded=0;fillColor=#dae8fc;strokeColor=#00CCCC;strokeWidth=2;" parent="1" edge="1">
          <mxGeometry width="50" height="50" relative="1" as="geometry">
            <mxPoint x="1896" y="274" as="sourcePoint" />
            <mxPoint x="1906" y="284" as="targetPoint" />
          </mxGeometry>
        </mxCell>
        <mxCell id="rIxZJg8oqruKLC6vNlmA-103" value="" style="endArrow=none;html=1;rounded=0;fillColor=#dae8fc;strokeColor=#00CCCC;strokeWidth=2;" parent="1" edge="1">
          <mxGeometry width="50" height="50" relative="1" as="geometry">
            <mxPoint x="1906" y="274" as="sourcePoint" />
            <mxPoint x="1896" y="284" as="targetPoint" />
          </mxGeometry>
        </mxCell>
        <mxCell id="rIxZJg8oqruKLC6vNlmA-104" value="" style="endArrow=none;html=1;rounded=0;fillColor=#dae8fc;strokeColor=#00CCCC;strokeWidth=2;" parent="1" edge="1">
          <mxGeometry width="50" height="50" relative="1" as="geometry">
            <mxPoint x="1896" y="254" as="sourcePoint" />
            <mxPoint x="1906" y="264" as="targetPoint" />
          </mxGeometry>
        </mxCell>
        <mxCell id="rIxZJg8oqruKLC6vNlmA-105" value="" style="endArrow=none;html=1;rounded=0;fillColor=#dae8fc;strokeColor=#00CCCC;strokeWidth=2;" parent="1" edge="1">
          <mxGeometry width="50" height="50" relative="1" as="geometry">
            <mxPoint x="1906" y="254" as="sourcePoint" />
            <mxPoint x="1896" y="264" as="targetPoint" />
          </mxGeometry>
        </mxCell>
        <mxCell id="rIxZJg8oqruKLC6vNlmA-106" value="" style="endArrow=none;html=1;rounded=0;fillColor=#a20025;strokeColor=#FF0000;strokeWidth=2;" parent="1" edge="1">
          <mxGeometry width="50" height="50" relative="1" as="geometry">
            <mxPoint x="1858" y="155" as="sourcePoint" />
            <mxPoint x="1868" y="165" as="targetPoint" />
          </mxGeometry>
        </mxCell>
        <mxCell id="rIxZJg8oqruKLC6vNlmA-107" value="" style="endArrow=none;html=1;rounded=0;fillColor=#a20025;strokeColor=#FF0000;strokeWidth=2;" parent="1" edge="1">
          <mxGeometry width="50" height="50" relative="1" as="geometry">
            <mxPoint x="1868" y="155" as="sourcePoint" />
            <mxPoint x="1858" y="165" as="targetPoint" />
          </mxGeometry>
        </mxCell>
        <mxCell id="rIxZJg8oqruKLC6vNlmA-108" value="" style="endArrow=none;html=1;rounded=0;fillColor=#dae8fc;strokeColor=#00CCCC;strokeWidth=2;" parent="1" edge="1">
          <mxGeometry width="50" height="50" relative="1" as="geometry">
            <mxPoint x="2325" y="295" as="sourcePoint" />
            <mxPoint x="2335" y="305" as="targetPoint" />
          </mxGeometry>
        </mxCell>
        <mxCell id="rIxZJg8oqruKLC6vNlmA-109" value="" style="endArrow=none;html=1;rounded=0;fillColor=#dae8fc;strokeColor=#00CCCC;strokeWidth=2;" parent="1" edge="1">
          <mxGeometry width="50" height="50" relative="1" as="geometry">
            <mxPoint x="2335" y="295" as="sourcePoint" />
            <mxPoint x="2325" y="305" as="targetPoint" />
          </mxGeometry>
        </mxCell>
        <mxCell id="rIxZJg8oqruKLC6vNlmA-110" value="" style="endArrow=none;html=1;rounded=0;fillColor=#dae8fc;strokeColor=#00CCCC;strokeWidth=2;" parent="1" edge="1">
          <mxGeometry width="50" height="50" relative="1" as="geometry">
            <mxPoint x="2325" y="275" as="sourcePoint" />
            <mxPoint x="2335" y="285" as="targetPoint" />
          </mxGeometry>
        </mxCell>
        <mxCell id="rIxZJg8oqruKLC6vNlmA-111" value="" style="endArrow=none;html=1;rounded=0;fillColor=#dae8fc;strokeColor=#00CCCC;strokeWidth=2;" parent="1" edge="1">
          <mxGeometry width="50" height="50" relative="1" as="geometry">
            <mxPoint x="2335" y="275" as="sourcePoint" />
            <mxPoint x="2325" y="285" as="targetPoint" />
          </mxGeometry>
        </mxCell>
        <mxCell id="rIxZJg8oqruKLC6vNlmA-112" value="" style="endArrow=none;html=1;rounded=0;fillColor=#dae8fc;strokeColor=#00CCCC;strokeWidth=2;" parent="1" edge="1">
          <mxGeometry width="50" height="50" relative="1" as="geometry">
            <mxPoint x="2325" y="255" as="sourcePoint" />
            <mxPoint x="2335" y="265" as="targetPoint" />
          </mxGeometry>
        </mxCell>
        <mxCell id="rIxZJg8oqruKLC6vNlmA-113" value="" style="endArrow=none;html=1;rounded=0;fillColor=#dae8fc;strokeColor=#00CCCC;strokeWidth=2;" parent="1" edge="1">
          <mxGeometry width="50" height="50" relative="1" as="geometry">
            <mxPoint x="2335" y="255" as="sourcePoint" />
            <mxPoint x="2325" y="265" as="targetPoint" />
          </mxGeometry>
        </mxCell>
        <mxCell id="rIxZJg8oqruKLC6vNlmA-114" value="" style="endArrow=none;html=1;rounded=0;fillColor=#a20025;strokeColor=#FF0000;strokeWidth=2;" parent="1" edge="1">
          <mxGeometry width="50" height="50" relative="1" as="geometry">
            <mxPoint x="2287" y="156" as="sourcePoint" />
            <mxPoint x="2297" y="166" as="targetPoint" />
          </mxGeometry>
        </mxCell>
        <mxCell id="rIxZJg8oqruKLC6vNlmA-115" value="" style="endArrow=none;html=1;rounded=0;fillColor=#a20025;strokeColor=#FF0000;strokeWidth=2;" parent="1" edge="1">
          <mxGeometry width="50" height="50" relative="1" as="geometry">
            <mxPoint x="2297" y="156" as="sourcePoint" />
            <mxPoint x="2287" y="166" as="targetPoint" />
          </mxGeometry>
        </mxCell>
        <mxCell id="rIxZJg8oqruKLC6vNlmA-116" value="" style="endArrow=none;html=1;rounded=0;fillColor=#dae8fc;strokeColor=#00CCCC;strokeWidth=2;" parent="1" edge="1">
          <mxGeometry width="50" height="50" relative="1" as="geometry">
            <mxPoint x="2325" y="295" as="sourcePoint" />
            <mxPoint x="2335" y="305" as="targetPoint" />
          </mxGeometry>
        </mxCell>
        <mxCell id="rIxZJg8oqruKLC6vNlmA-117" value="" style="endArrow=none;html=1;rounded=0;fillColor=#dae8fc;strokeColor=#00CCCC;strokeWidth=2;" parent="1" edge="1">
          <mxGeometry width="50" height="50" relative="1" as="geometry">
            <mxPoint x="2335" y="295" as="sourcePoint" />
            <mxPoint x="2325" y="305" as="targetPoint" />
          </mxGeometry>
        </mxCell>
        <mxCell id="rIxZJg8oqruKLC6vNlmA-118" value="" style="endArrow=none;html=1;rounded=0;fillColor=#dae8fc;strokeColor=#00CCCC;strokeWidth=2;" parent="1" edge="1">
          <mxGeometry width="50" height="50" relative="1" as="geometry">
            <mxPoint x="2325" y="275" as="sourcePoint" />
            <mxPoint x="2335" y="285" as="targetPoint" />
          </mxGeometry>
        </mxCell>
        <mxCell id="rIxZJg8oqruKLC6vNlmA-119" value="" style="endArrow=none;html=1;rounded=0;fillColor=#dae8fc;strokeColor=#00CCCC;strokeWidth=2;" parent="1" edge="1">
          <mxGeometry width="50" height="50" relative="1" as="geometry">
            <mxPoint x="2335" y="275" as="sourcePoint" />
            <mxPoint x="2325" y="285" as="targetPoint" />
          </mxGeometry>
        </mxCell>
        <mxCell id="rIxZJg8oqruKLC6vNlmA-120" value="" style="endArrow=none;html=1;rounded=0;fillColor=#dae8fc;strokeColor=#00CCCC;strokeWidth=2;" parent="1" edge="1">
          <mxGeometry width="50" height="50" relative="1" as="geometry">
            <mxPoint x="2325" y="255" as="sourcePoint" />
            <mxPoint x="2335" y="265" as="targetPoint" />
          </mxGeometry>
        </mxCell>
        <mxCell id="rIxZJg8oqruKLC6vNlmA-121" value="" style="endArrow=none;html=1;rounded=0;fillColor=#dae8fc;strokeColor=#00CCCC;strokeWidth=2;" parent="1" edge="1">
          <mxGeometry width="50" height="50" relative="1" as="geometry">
            <mxPoint x="2335" y="255" as="sourcePoint" />
            <mxPoint x="2325" y="265" as="targetPoint" />
          </mxGeometry>
        </mxCell>
        <mxCell id="rIxZJg8oqruKLC6vNlmA-122" value="" style="endArrow=none;html=1;rounded=0;fillColor=#a20025;strokeColor=#FF0000;strokeWidth=2;" parent="1" edge="1">
          <mxGeometry width="50" height="50" relative="1" as="geometry">
            <mxPoint x="2287" y="156" as="sourcePoint" />
            <mxPoint x="2297" y="166" as="targetPoint" />
          </mxGeometry>
        </mxCell>
        <mxCell id="rIxZJg8oqruKLC6vNlmA-123" value="" style="endArrow=none;html=1;rounded=0;fillColor=#a20025;strokeColor=#FF0000;strokeWidth=2;" parent="1" edge="1">
          <mxGeometry width="50" height="50" relative="1" as="geometry">
            <mxPoint x="2297" y="156" as="sourcePoint" />
            <mxPoint x="2287" y="166" as="targetPoint" />
          </mxGeometry>
        </mxCell>
        <mxCell id="rIxZJg8oqruKLC6vNlmA-124" value="" style="endArrow=none;html=1;rounded=0;fillColor=#dae8fc;strokeColor=#00CCCC;strokeWidth=2;" parent="1" edge="1">
          <mxGeometry width="50" height="50" relative="1" as="geometry">
            <mxPoint x="1779.5" y="408" as="sourcePoint" />
            <mxPoint x="1789.5" y="418" as="targetPoint" />
          </mxGeometry>
        </mxCell>
        <mxCell id="rIxZJg8oqruKLC6vNlmA-125" value="" style="endArrow=none;html=1;rounded=0;fillColor=#dae8fc;strokeColor=#00CCCC;strokeWidth=2;" parent="1" edge="1">
          <mxGeometry width="50" height="50" relative="1" as="geometry">
            <mxPoint x="1789.5" y="408" as="sourcePoint" />
            <mxPoint x="1779.5" y="418" as="targetPoint" />
          </mxGeometry>
        </mxCell>
        <mxCell id="rIxZJg8oqruKLC6vNlmA-126" value="" style="endArrow=none;html=1;rounded=0;fillColor=#a20025;strokeColor=#FF0000;strokeWidth=2;" parent="1" edge="1">
          <mxGeometry width="50" height="50" relative="1" as="geometry">
            <mxPoint x="1743" y="379.99999999999994" as="sourcePoint" />
            <mxPoint x="1753" y="389.99999999999994" as="targetPoint" />
          </mxGeometry>
        </mxCell>
        <mxCell id="rIxZJg8oqruKLC6vNlmA-127" value="" style="endArrow=none;html=1;rounded=0;fillColor=#a20025;strokeColor=#FF0000;strokeWidth=2;" parent="1" edge="1">
          <mxGeometry width="50" height="50" relative="1" as="geometry">
            <mxPoint x="1753" y="379.99999999999994" as="sourcePoint" />
            <mxPoint x="1743" y="389.99999999999994" as="targetPoint" />
          </mxGeometry>
        </mxCell>
        <mxCell id="rIxZJg8oqruKLC6vNlmA-128" value="" style="endArrow=none;html=1;rounded=0;strokeWidth=4;strokeColor=#666666;" parent="1" edge="1">
          <mxGeometry width="50" height="50" relative="1" as="geometry">
            <mxPoint x="1731" y="384.99999999999994" as="sourcePoint" />
            <mxPoint x="1820" y="385" as="targetPoint" />
          </mxGeometry>
        </mxCell>
        <mxCell id="rIxZJg8oqruKLC6vNlmA-131" value="" style="endArrow=none;html=1;rounded=0;strokeWidth=4;strokeColor=#666666;" parent="1" edge="1">
          <mxGeometry width="50" height="50" relative="1" as="geometry">
            <mxPoint x="1728.5" y="413" as="sourcePoint" />
            <mxPoint x="1820" y="413" as="targetPoint" />
          </mxGeometry>
        </mxCell>
        <mxCell id="rIxZJg8oqruKLC6vNlmA-134" value="" style="endArrow=none;html=1;rounded=0;fillColor=#dae8fc;strokeColor=#00CCCC;strokeWidth=2;" parent="1" edge="1">
          <mxGeometry width="50" height="50" relative="1" as="geometry">
            <mxPoint x="1779.5" y="408" as="sourcePoint" />
            <mxPoint x="1789.5" y="418" as="targetPoint" />
          </mxGeometry>
        </mxCell>
        <mxCell id="rIxZJg8oqruKLC6vNlmA-135" value="" style="endArrow=none;html=1;rounded=0;fillColor=#dae8fc;strokeColor=#00CCCC;strokeWidth=2;" parent="1" edge="1">
          <mxGeometry width="50" height="50" relative="1" as="geometry">
            <mxPoint x="1789.5" y="408" as="sourcePoint" />
            <mxPoint x="1779.5" y="418" as="targetPoint" />
          </mxGeometry>
        </mxCell>
        <mxCell id="rIxZJg8oqruKLC6vNlmA-136" value="" style="endArrow=none;html=1;rounded=0;fillColor=#a20025;strokeColor=#FF0000;strokeWidth=2;" parent="1" edge="1">
          <mxGeometry width="50" height="50" relative="1" as="geometry">
            <mxPoint x="1743" y="379.99999999999994" as="sourcePoint" />
            <mxPoint x="1753" y="389.99999999999994" as="targetPoint" />
          </mxGeometry>
        </mxCell>
        <mxCell id="rIxZJg8oqruKLC6vNlmA-137" value="" style="endArrow=none;html=1;rounded=0;fillColor=#a20025;strokeColor=#FF0000;strokeWidth=2;" parent="1" edge="1">
          <mxGeometry width="50" height="50" relative="1" as="geometry">
            <mxPoint x="1753" y="379.99999999999994" as="sourcePoint" />
            <mxPoint x="1743" y="389.99999999999994" as="targetPoint" />
          </mxGeometry>
        </mxCell>
        <mxCell id="rIxZJg8oqruKLC6vNlmA-138" value="" style="endArrow=none;html=1;rounded=0;strokeWidth=4;strokeColor=#666666;" parent="1" edge="1">
          <mxGeometry width="50" height="50" relative="1" as="geometry">
            <mxPoint x="2154" y="396.81999999999994" as="sourcePoint" />
            <mxPoint x="2240" y="397" as="targetPoint" />
          </mxGeometry>
        </mxCell>
        <mxCell id="rIxZJg8oqruKLC6vNlmA-139" value="" style="endArrow=none;html=1;rounded=0;strokeWidth=4;strokeColor=#d79b00;fillColor=#ffe6cc;" parent="1" edge="1">
          <mxGeometry width="50" height="50" relative="1" as="geometry">
            <mxPoint x="2135" y="396.81999999999994" as="sourcePoint" />
            <mxPoint x="2155" y="396.81999999999994" as="targetPoint" />
          </mxGeometry>
        </mxCell>
        <mxCell id="rIxZJg8oqruKLC6vNlmA-140" value="" style="endArrow=none;html=1;rounded=0;fillColor=#dae8fc;strokeColor=#00CCCC;strokeWidth=2;" parent="1" edge="1">
          <mxGeometry width="50" height="50" relative="1" as="geometry">
            <mxPoint x="2207" y="392" as="sourcePoint" />
            <mxPoint x="2217" y="402" as="targetPoint" />
          </mxGeometry>
        </mxCell>
        <mxCell id="rIxZJg8oqruKLC6vNlmA-141" value="" style="endArrow=none;html=1;rounded=0;fillColor=#dae8fc;strokeColor=#00CCCC;strokeWidth=2;" parent="1" edge="1">
          <mxGeometry width="50" height="50" relative="1" as="geometry">
            <mxPoint x="2217" y="392" as="sourcePoint" />
            <mxPoint x="2207" y="402" as="targetPoint" />
          </mxGeometry>
        </mxCell>
        <mxCell id="rIxZJg8oqruKLC6vNlmA-142" value="" style="endArrow=none;html=1;rounded=0;fillColor=#dae8fc;strokeColor=#00CCCC;strokeWidth=2;" parent="1" edge="1">
          <mxGeometry width="50" height="50" relative="1" as="geometry">
            <mxPoint x="2207" y="392" as="sourcePoint" />
            <mxPoint x="2217" y="402" as="targetPoint" />
          </mxGeometry>
        </mxCell>
        <mxCell id="rIxZJg8oqruKLC6vNlmA-143" value="" style="endArrow=none;html=1;rounded=0;fillColor=#dae8fc;strokeColor=#00CCCC;strokeWidth=2;" parent="1" edge="1">
          <mxGeometry width="50" height="50" relative="1" as="geometry">
            <mxPoint x="2217" y="392" as="sourcePoint" />
            <mxPoint x="2207" y="402" as="targetPoint" />
          </mxGeometry>
        </mxCell>
        <mxCell id="rIxZJg8oqruKLC6vNlmA-144" value="&lt;font style=&quot;font-size: 28px;&quot;&gt;Indistinguishable&lt;br&gt;&lt;/font&gt;" style="text;html=1;align=center;verticalAlign=middle;resizable=0;points=[];autosize=1;strokeColor=none;fillColor=none;fontSize=24;" parent="1" vertex="1">
          <mxGeometry x="1665" y="455" width="220" height="40" as="geometry" />
        </mxCell>
        <mxCell id="rIxZJg8oqruKLC6vNlmA-145" value="&lt;span style=&quot;font-size: 28px;&quot;&gt;Distinguishable&lt;/span&gt;" style="text;html=1;align=center;verticalAlign=middle;resizable=0;points=[];autosize=1;strokeColor=none;fillColor=none;fontSize=24;" parent="1" vertex="1">
          <mxGeometry x="2079" y="455" width="210" height="40" as="geometry" />
        </mxCell>
        <mxCell id="l1Ld0hPvR57MxeaL0Yox-3" value="" style="endArrow=none;html=1;rounded=0;fillColor=#a20025;strokeColor=#FF0000;strokeWidth=2;" edge="1" parent="1">
          <mxGeometry width="50" height="50" relative="1" as="geometry">
            <mxPoint x="1790" y="541" as="sourcePoint" />
            <mxPoint x="1800" y="551" as="targetPoint" />
          </mxGeometry>
        </mxCell>
        <mxCell id="l1Ld0hPvR57MxeaL0Yox-4" value="" style="endArrow=none;html=1;rounded=0;fillColor=#a20025;strokeColor=#FF0000;strokeWidth=2;" edge="1" parent="1">
          <mxGeometry width="50" height="50" relative="1" as="geometry">
            <mxPoint x="1800" y="541" as="sourcePoint" />
            <mxPoint x="1790" y="551" as="targetPoint" />
          </mxGeometry>
        </mxCell>
        <mxCell id="l1Ld0hPvR57MxeaL0Yox-5" value="" style="endArrow=none;html=1;rounded=0;fillColor=#a20025;strokeColor=#FF0000;strokeWidth=2;" edge="1" parent="1">
          <mxGeometry width="50" height="50" relative="1" as="geometry">
            <mxPoint x="1790" y="541" as="sourcePoint" />
            <mxPoint x="1800" y="551" as="targetPoint" />
          </mxGeometry>
        </mxCell>
        <mxCell id="l1Ld0hPvR57MxeaL0Yox-6" value="" style="endArrow=none;html=1;rounded=0;fillColor=#a20025;strokeColor=#FF0000;strokeWidth=2;" edge="1" parent="1">
          <mxGeometry width="50" height="50" relative="1" as="geometry">
            <mxPoint x="1800" y="541" as="sourcePoint" />
            <mxPoint x="1790" y="551" as="targetPoint" />
          </mxGeometry>
        </mxCell>
        <mxCell id="l1Ld0hPvR57MxeaL0Yox-7" value="&lt;span style=&quot;font-size: 28px;&quot;&gt;PCR or Sequence error&lt;/span&gt;" style="text;html=1;align=center;verticalAlign=middle;resizable=0;points=[];autosize=1;strokeColor=none;fillColor=none;fontSize=32;" vertex="1" parent="1">
          <mxGeometry x="1816" y="520" width="310" height="50" as="geometry" />
        </mxCell>
        <mxCell id="l1Ld0hPvR57MxeaL0Yox-8" value="" style="endArrow=none;html=1;rounded=0;fillColor=#dae8fc;strokeColor=#00CCCC;strokeWidth=2;" edge="1" parent="1">
          <mxGeometry width="50" height="50" relative="1" as="geometry">
            <mxPoint x="1791.5" y="582" as="sourcePoint" />
            <mxPoint x="1801.5" y="592" as="targetPoint" />
          </mxGeometry>
        </mxCell>
        <mxCell id="l1Ld0hPvR57MxeaL0Yox-9" value="" style="endArrow=none;html=1;rounded=0;fillColor=#dae8fc;strokeColor=#00CCCC;strokeWidth=2;" edge="1" parent="1">
          <mxGeometry width="50" height="50" relative="1" as="geometry">
            <mxPoint x="1801.5" y="582" as="sourcePoint" />
            <mxPoint x="1791.5" y="592" as="targetPoint" />
          </mxGeometry>
        </mxCell>
        <mxCell id="l1Ld0hPvR57MxeaL0Yox-10" value="" style="endArrow=none;html=1;rounded=0;fillColor=#dae8fc;strokeColor=#00CCCC;strokeWidth=2;" edge="1" parent="1">
          <mxGeometry width="50" height="50" relative="1" as="geometry">
            <mxPoint x="1791.5" y="582" as="sourcePoint" />
            <mxPoint x="1801.5" y="592" as="targetPoint" />
          </mxGeometry>
        </mxCell>
        <mxCell id="l1Ld0hPvR57MxeaL0Yox-11" value="" style="endArrow=none;html=1;rounded=0;fillColor=#dae8fc;strokeColor=#00CCCC;strokeWidth=2;" edge="1" parent="1">
          <mxGeometry width="50" height="50" relative="1" as="geometry">
            <mxPoint x="1801.5" y="582" as="sourcePoint" />
            <mxPoint x="1791.5" y="592" as="targetPoint" />
          </mxGeometry>
        </mxCell>
        <mxCell id="l1Ld0hPvR57MxeaL0Yox-12" value="&lt;span style=&quot;color: rgb(0, 0, 0); font-family: Helvetica; font-size: 28px; font-style: normal; font-variant-ligatures: normal; font-variant-caps: normal; font-weight: 400; letter-spacing: normal; orphans: 2; text-align: center; text-indent: 0px; text-transform: none; widows: 2; word-spacing: 0px; -webkit-text-stroke-width: 0px; background-color: rgb(248, 249, 250); text-decoration-style: initial; text-decoration-color: initial; float: none; display: inline !important;&quot;&gt;Low frequency mutation&lt;/span&gt;" style="text;whiteSpace=wrap;html=1;fontSize=32;" vertex="1" parent="1">
          <mxGeometry x="1824" y="561" width="320" height="60" as="geometry" />
        </mxCell>
      </root>
    </mxGraphModel>
  </diagram>
</mxfile>
